<svg version="1.2" xmlns="http://www.w3.org/2000/svg" viewBox="0 0 5975 1571" width="5975" height="1571">
	<title>persitelas-v2</title>
	<style>
		.s0 { fill: #2d5b6a } 
		.s1 { fill: #6d4f45 } 
	</style>
	<g>
		<path class="s0" d="m180.6 288.5c-4.3 2.2-11.2 12.8-22.5 35-13 25.5-28.3 55-36.1 69.5-6.8 12.8-19.8 39-20.5 41.6-0.4 1.7 0 2.3 2.2 3 1.5 0.4 85.4 1 186.3 1.3 169.1 0.6 183.8 0.7 187.2 2.3q3.7 1.6 4.5 4.5c0.4 1.5 0.8 10.5 0.8 19.8-0.1 18.1-1.5 25.4-5.3 27-4.2 1.8-50.9 2.5-168.8 2.3-69.9 0-127.6 0.2-128.2 0.6-2.2 1.4-10.2 16.1-37 68.1-35.3 68.6-41.2 80.5-41.2 82.9 0 1.7 0.8 2.6 2.8 3.2 1.5 0.5 84.2 0.9 183.7 0.9 99.6 0.1 183.1 0.4 185.6 0.8 2.5 0.4 5.6 1.7 6.8 2.8 2.2 2 2.2 2.5 1.9 24.1-0.3 21.7-0.3 22-2.7 23.9-2.3 1.9-6.1 1.9-148.3 1.9-126.3 0-146.3 0.2-148.7 1.5-5.1 2.6-15.3 20.2-39.1 67.5-4.5 9.1-12.8 25-18.3 35.5-15.1 28.8-23.7 46.7-23.7 49.6 0 2 0.6 2.9 2.8 3.5 1.5 0.4 85.5 1 186.7 1.3 182 0.6 184 0.6 186.7 2.6 4.2 3 5 7.8 4.6 26.3-0.3 15.8-0.4 16.4-2.6 18.3-1.3 1-4.3 2.4-6.5 3-3.1 0.8-42.5 1-145.9 0.8l-141.7-0.4-3 2.9c-1.7 1.6-5.1 5.9-7.5 9.5-8.6 12.9-73.6 139.4-73.6 143.4 0 5.3-5.8 5.2 188 5.4 98.2 0.1 180.8 0.4 183.6 0.8 8.7 1 8.8 1.5 9.2 23.9 0.2 10.5 0 20.7-0.5 22.6-1.8 7 9.2 6.5-153.6 6.5h-146.8l-1.9 2.5c-3 3.9-10.9 18.1-33.6 60.5-25.4 47.7-45.6 88.9-44.2 90 0.2 0.1 2.6 0.8 5.3 1.5 4 1 41.2 1.4 186 1.5 99.6 0.2 182.3 0.6 183.8 1 1.7 0.5 3.3 1.8 3.9 3.4 1.6 3.8 2.4 57.2 0.9 59.9-0.6 1.2-4.8 4.9-9.4 8.4-22 16.7-30.9 33.1-27.8 51.2 2.1 12.7 11.2 25.6 21.7 30.9 14.3 7.2 41.1 8.5 53 2.5 16.6-8.2 27.9-32.3 23-49.1-3-10.3-8-17.4-22-31l-13.1-12.9-0.3-25.1c-0.4-25 0.1-33.9 1.8-36.7 0.8-1.3 9.2-1.6 60.3-2 47.3-0.5 59.8-0.8 61.1-1.9 0.8-0.7 2-3 2.6-5 0.6-2.3 1-29.5 1-73.8v-70.2l-2.4-2.8-2.4-2.8h-59.1c-54.9-0.1-59.2-0.2-60.9-1.8-1.5-1.6-1.7-4.2-1.7-25.6 0-13.2 0.4-24.3 0.8-24.8 0.5-0.4 27.3-1 59.5-1.3 56.3-0.5 58.8-0.6 62-2.5 1.8-1.1 3.5-2.9 3.8-4 0.2-1.1 0.3-35.2 0.2-75.8l-0.3-73.9-2.3-1.8c-1.2-1-4.6-2.1-7.5-2.4-2.8-0.3-29.2-0.8-58.5-1.1-31.6-0.3-54-0.9-55.1-1.4-2.4-1.3-3.1-7.4-3.1-27.7 0-14.4 0.2-16.4 1.9-18.5l1.9-2.4 60.4-0.5c33.1-0.3 60.9-0.9 61.6-1.3 0.9-0.6 1.2-16 1.1-71.5 0-66.8-0.4-83.1-2.3-84.9-0.4-0.4-27.9-1-61.1-1.3-47.7-0.4-60.7-0.8-61.7-1.8-1.9-1.9-1.9-47.5 0-49.4 1-1 13.8-1.4 60.1-1.8 53.4-0.5 59-0.7 61.4-2.3 1.5-0.9 2.9-2.8 3.3-4.1 0.7-3 0.1-148.3-0.7-149-0.3-0.4-28-0.8-61.4-1-68.9-0.5-62.9 0.4-64-9-0.4-2.8-0.5-13.5-0.3-23.8 0.3-16.4 0.5-19 2.1-20.5 1.6-1.7 6-1.8 62.3-2.3 52.3-0.4 60.6-0.7 61.4-2 0.7-0.9 0.9-28.3 0.8-74.2-0.2-58.1-0.6-73-1.6-74-1.1-1.1-42.9-1.3-225.4-1.3-152.5 0-224.8 0.3-226.2 1z"/>
		<path fill-rule="evenodd" class="s1" d="m749.7 327.7c25.7 0.2 105.3 0.5 176.8 0.7 138.7 0.4 152.4 0.8 186 5.7 62.7 9.2 109.3 31.8 133.7 65 12.2 16.8 26.7 44.5 31.1 59.9 8.3 28.7 11.1 47.7 11 75 0 38.6-6.8 79.4-18.2 109.1-8.1 21.5-11.9 29.1-24.9 50.9-19.4 32.3-35.5 52.3-57.9 72-10.8 9.5-16.5 13.9-32.3 24.9-22.9 16-57.9 30.6-85 35.6-26.7 4.9-66.9 4.9-89-0.1-9-2-19.4-6.1-21.6-8.5-1.6-1.7-2.4-7.2-1.3-8.4 0.3-0.2 14.6-0.9 31.9-1.5 36.7-1.2 40.3-1.7 61.2-7.6 46.6-13.2 78.1-34.7 100.2-68.4 6.4-9.7 17.6-29.7 21.6-38.6 11.9-26.3 20.2-81.6 17.1-113.3-1.3-13.3-1.9-16.7-7.4-40.1-12-50.8-39-100.1-69.5-126.7-15-13.1-44.6-30.3-63.7-37.1-22.8-8.1-49-10.2-76.7-6.2-17 2.5-26.1 4.8-42.5 10.7-13.1 4.8-19.7 9.3-20.7 14.1-0.8 3.8-0.8-2.7-0.1 346.7 0.3 172.7 1 331.3 1.6 352.5 1.3 50.7 3.2 65.3 10.8 81.6 9.9 21.1 24.2 32.8 49 40.1 11.8 3.4 25 6 36.5 7.2 5.4 0.6 10.4 1.5 10.9 2 1.3 1.3-3.9 9.1-6.2 9.2-0.9 0.1-2.9 0.3-4.6 0.5-1.6 0.1-38.8 0.7-82.5 1.3-77.5 1-195.1 0.5-201.9-0.8-2.9-0.5-3.7-1.3-4.9-4.7-0.8-2.3-1.3-4.8-1-5.5 0.3-0.8 6.8-3.4 14.4-5.8 31.1-9.7 45.2-16.8 52.3-26.4 5.4-7.3 7.5-14.3 11.7-38.7 2.7-16.2 3-66.5 2.9-409-0.2-259.5-0.5-328.6-1.5-333-2.4-10.6-11.7-25.8-21.9-36-11.1-11-24.4-19.5-53.4-34.1-15.5-7.8-22.1-12.3-20-13.6 0.6-0.4 22.2-0.7 48-0.6zm4956.3 127.5c4.3-0.4 31.8 2 43.7 3.9 16.5 2.5 38.3 7.2 47.3 10.3l6.5 2.2 0.3 6.9c0.3 7-1.1 20.3-5.3 51.5-1.3 9.6-2.6 20.9-3 25-1.5 19.5-2.8 29-4.7 35-2.6 8-3.3 9-7 9-2.7 0-3.2-0.6-6.2-7.3-1.9-3.9-4.4-10.1-5.6-13.7-11.7-33.6-31.7-57.9-59-71.5-19.1-9.6-37.4-13.2-53.8-10.5-20.5 3.3-45.5 13.5-58.5 24-18 14.4-32 36.3-36.1 56.2-3.4 16.5-2.9 40.6 1 53.9 4.2 14 17.9 36.9 32.7 54.4 13.3 15.7 44.1 45.2 63.2 60.6 17.8 14.2 54.1 44.6 67.4 56.5 26.8 23.8 45.6 45.6 64.5 74.7 20.4 31.3 26.7 53.2 26.7 92.7 0 20.2-1.4 30.6-5.8 45-8.5 27.8-33.9 63-61.1 84.7-24.1 19.3-61.2 38.7-94.7 49.6-16.1 5.2-25.4 7.2-41.5 8.7-6.3 0.6-14.4 1.8-18 2.6-7.5 1.8-20.5 2-25.2 0.5-1.8-0.5-8-1.5-13.8-2.1-17.7-1.8-32.6-5.8-45.5-12.2-30.2-15.1-47.1-42-45-71.8 0.8-12.3 7-43.7 13-66.3 4-14.6 5.1-17.7 6.6-17.7 1 0 2.1 0.5 2.4 1 0.4 0.6 1.7 7.7 3.1 15.8 5.3 31.6 8.7 42.4 17.8 56 5.1 7.6 18.2 21 27.1 27.7 7.1 5.3 29.7 16.7 37.5 18.9 16 4.5 39.4 6.5 53 4.6 42.4-6 68.6-17.3 89-38.6 12.9-13.5 20.2-24 24.6-35.5 5.3-14.1 5.4-14.6 6.1-26.1 0.7-13-0.7-23.4-4.9-34.3-1.6-4.4-3.9-10.5-5.1-13.5-2.9-7.8-8.1-17-15.5-28-8.7-12.7-9.8-14.1-30.2-39-7.5-9.1-53.3-55.5-68.5-69.3-21-19.1-66.1-63.7-76.7-75.9-29.1-33.6-47.5-61.1-57.8-86.8-16.2-40.6-15.5-74.5 2.3-107.2 13.7-25.1 42.7-52.3 72.9-68.3 29.4-15.5 91.1-32.7 127.3-35.4 6.1-0.4 11.7-0.9 12.5-0.9zm-2918.5 3.8c32.3 4.9 54.9 9.5 58.3 11.7 5.7 3.6 6.2 10.9 2.2 31.5-1.1 5.4-2.9 20.5-4 33.5-3.1 36.1-5.4 49.4-10.5 60.9-1.3 3-2.8 5.4-3.4 5.4-3.2 0-6.4-5.1-10.2-16.5-8.2-24.3-20.6-46-33.5-58.8-6.9-6.9-20.6-16.7-29.5-21.2-10.5-5.4-30-10.4-40.1-10.5-11.8 0-41.5 7.3-53.1 13.1-8.5 4.3-18.9 12.3-27.2 21-17 17.8-24.7 34.3-29.5 63.4-1.8 11 3.2 35.9 10.5 52.5 13.9 31.5 44.9 64.9 106.9 115 31.9 25.8 49.8 41.2 65 55.9 36.5 35.5 64.5 79.2 73 113.6 7 28.2 7.2 43.7 1.2 68.1-5.9 23.8-12.8 39.2-27.4 61.4-17.1 26-48.4 51.4-88.5 71.9-31.4 16-59.7 24.3-91.2 26.6-4.9 0.4-11.7 1.3-15 2.1-9.7 2.2-17.7 1.7-51-3.6-10.8-1.7-22.1-5.6-34-11.7-17.6-9.1-32.4-26.1-38.4-44-1.8-5.2-2.1-8.7-2.1-21.1 0-17 1.6-29.8 6.5-52.7 4.7-21.9 9.5-35.5 12.8-36.8 3.1-1.2 4.1 1 3.9 8.5-0.4 11.7 2.3 28.1 6.3 38.8 11.8 31.4 35.7 56 66.1 67.9 19.6 7.7 37.4 10 62.8 8.2 21.7-1.6 33.8-4 46.4-9.1 17.6-7.1 29.5-14.6 42.5-26.9 6-5.7 15.7-17.4 18.2-22.1 1.1-1.9 3.1-5.5 4.6-8 1.5-2.5 3.3-7.4 4-11 0.6-3.6 2-9.7 3.1-13.6 2.3-8.9 2.5-20.5 0.4-27-0.8-2.7-2.5-9.1-3.6-14.3-1.4-6.5-3.5-12.4-6.9-19-5.4-10.5-12.6-23.2-15.4-27.1-17.8-25.3-28.6-37.1-87.3-94.4-73.5-71.9-84.3-83.3-110.7-116.3-20.5-25.8-36.8-58.2-42.9-85.8-1.6-7.5-1.6-37.4 0.1-46.5 4.2-22.9 16-44.9 33.1-61.9 9.7-9.6 24.7-21.7 38-30.3 33.1-21.7 83.7-37.9 127.3-40.9 8.9-0.6 17.6-1.5 19.2-2 4.5-1.3 28.3-0.2 43 2.1zm445 0c0.2 0 4.7 2.3 10 5.1 15.1 7.8 23 10.6 33.5 11.8 13 1.5 41.9 2.9 76 3.7 35.4 0.8 298.1 0.8 333.5-0.1 26.7-0.7 49.9-3.1 55.4-5.9 3-1.5 14.1-3.6 19.3-3.6h3.5l1.2 6.7c1 5.3 1.1 10.7 0.2 24.8-0.6 9.9-1.3 24.1-1.6 31.5-1.2 26.8-3.3 42.2-6.9 51.7-5.2 13.7-7.8 13.8-13.8 0.2-8.7-20-10.3-23.2-14.2-28.8-5.5-7.8-14-15.1-23.4-19.9-7.4-3.8-23.8-9.4-31.2-10.6-22.5-3.7-24.3-3.8-76.5-4-28.6 0-53.7 0.3-55.7 0.7-2.3 0.5-4.3 1.7-5 3-1 1.8-1.3 54-1.4 257.7-0.1 140.5 0.2 262.2 0.6 270.5 1.3 25.5 6.5 38.2 21.9 53.6 9.7 9.6 19.6 15.7 33.8 20.8 10.3 3.8 16.8 6.7 18.1 8.4 1.5 1.8 0.2 7.6-1.9 8.7-1.8 1-7.5 0.8-45.9-2-18.6-1.3-70.7-3-96.2-3-10.8 0-31.5 0.9-45.9 2-25.4 2-29.6 1.9-31.1-0.4-1.4-2-0.8-6.3 1-7.8 0.9-0.8 6.4-3.2 12.2-5.3 26.1-9.6 39.8-21.5 43.2-37.6 1.9-9.4 2-562.1 0-564.1-1-1-17.4-1.3-83.5-1.3h-82.2l-6.9 3.4c-8.3 4.1-18 11.3-27.4 20.2-9.3 9-16.1 17.6-26.4 33.4-3.8 5.8-6.4 6.6-9.7 3.1-6-6.4-5.4-29.5 1.5-56.2 4.5-17.7 13.4-47.4 17.5-58.4 1.7-4.7 3.3-9.3 3.6-10.3 0.3-0.9 0.7-1.7 0.8-1.7zm1837 2c3.5 0 8.9 11.1 19 39 3.1 8.5 10.5 28.8 16.5 45 5.9 16.2 13.3 36.2 16.3 44.5 9.5 25.6 22.6 59.8 42.2 109.5 4 10.2 9.8 24.8 12.8 32.5 11.8 30.2 32 81.3 34.3 86.5 1.3 3 7.5 18.3 13.9 34 16.2 39.5 24.4 59.1 26.1 61.7 0.8 1.2 1.4 2.8 1.4 3.5 0 0.7 1.5 4.6 3.4 8.8 14.5 31.9 26.4 56.8 51.6 107.5 18.1 36.5 27.8 52.9 38 64.3 6.5 7.2 20.2 18.7 24.3 20.2 1.8 0.7 6.8 2.7 11.2 4.5 4.4 1.8 11.8 4.1 16.5 5 4.7 0.9 10.1 2.1 12.1 2.6 2 0.5 4.8 0.9 6.2 0.9 2.7 0 3.7 1.6 3.7 6 0 2.6-0.5 3-4.2 3.9-5.1 1.1-48.1 0.6-77.8-1-33.4-1.8-67.3-0.4-106.5 4.6-7.1 0.9-16.8 1.7-21.3 1.8-7.7 0.2-8.5 0-10.3-2.2-2.8-3.4-2.4-7.5 0.9-10.6 1.5-1.5 10.3-6.4 19.6-11.1 18.4-9.1 20.6-10.6 20.6-13.8 0-3.6-6.2-20.8-18.7-52.1-6.7-16.5-15.1-37.7-18.7-47-3.7-9.4-7.6-19-8.6-21.5-1.1-2.5-3.7-9.5-5.9-15.5-3.4-9.5-9.5-25.5-24.4-64-5.6-14.5-7.7-18.3-11.2-20.5-3.2-2-4.7-2-91.7-2h-88.5l-2.1 2.3c-3.6 3.8-6.7 11.3-18.9 45.7-23.7 67-41.3 121.9-49.2 153.5-4.2 16.7-4.6 20.6-2.8 24.2 1.7 3.2 15.6 13 19.7 13.9 9.2 2 20.1 6.5 26 10.7l2.5 1.7-3.8 3.7c-3.6 3.7-3.8 3.7-10.4 3.5-3.8-0.2-15.3-1.2-25.8-2.4-25.8-2.8-44.9-3.2-85-1.9-29.5 1-40.4 1.8-67.2 4.8l-5.2 0.6-0.9-3.4c-0.5-1.9-0.7-4-0.4-4.7 0.7-2 7.4-5 14.5-6.7 25.5-5.9 42.6-15.7 59.5-34 6.2-6.8 8.4-10.3 15.7-25 7.2-14.6 14.8-32.9 42.2-102.5 2.5-6.3 5.8-14.9 7.4-19 1.5-4.1 4.5-12.2 6.7-18 4.1-10.8 10.4-28.3 26-71.5 5-13.8 12.1-32.7 15.8-42 15.2-38.9 28.5-75.7 51.4-142 2.7-7.7 5.8-16.7 7.1-20 1.2-3.3 9-26.3 17.4-51 19.2-56.4 20.3-59.6 25.3-73 22.3-60.1 24-64.2 27.8-69.2 1.4-1.8 3.1-3.3 3.9-3.3zm-16.9 160.5c-1 3.8-3.5 12.6-5.7 19.5-2.1 6.9-6 20.1-8.7 29.5-12.3 42.3-33.1 107.9-45.6 144.5-4.5 12.8-6.9 23.5-6.2 26.4 0.5 2 1.5 2.6 5.4 3.3 6.1 1 133.5 1.1 138.4 0 2.3-0.5 3.9-1.5 4.3-2.7 0.8-2.4-2-17-4.4-23.5-1.1-2.8-2.9-8.6-4.1-13-3.1-11.6-13-44.2-23.5-77.5-4.3-13.5-9.6-31.4-17-57-2.9-10.2-6.5-22.6-7.9-27.5-5.8-20.1-10.3-30.7-13.5-32.5-5.3-2.8-9 0.5-11.5 10.5zm-854.5-142.2c-3.2 26.2-14.1 85.3-17.7 95.9-1.4 4.4-3.6 9.1-4.9 10.5l-2.2 2.7-1.8-2.7c-0.9-1.5-3.2-7.8-5-14.1-4.1-14.7-7.4-21.3-14.3-28.7-13.3-14.4-28.5-21.8-52.4-25.5-9.7-1.5-18.6-1.8-62.3-1.8-28-0.1-52.2 0.2-53.7 0.7-1.5 0.4-3.2 1.6-3.8 2.7-0.8 1.4-1.1 37.9-1 120.1 0 129.2-0.3 122.9 5.8 124.6 1.5 0.5 31.7 0.8 67.2 0.8h64.5l9-2.4c5-1.3 17.3-5.8 27.5-9.8 17.4-7 31.5-11.2 32.9-9.8 1.3 1.4 0.2 25.7-1.8 40-1.2 8.2-2.9 21.1-3.7 28.5-3.3 31-7 55.3-9.4 61.6-1.8 4.7-6.3 6-9.4 2.6-2.9-3.3-7.7-13.4-11.6-24.7-7.2-21-12.1-29.4-19.1-33-1.4-0.8-11.9-2.7-23.5-4.5-11.5-1.7-24.7-3.8-29.4-4.7-7.1-1.4-15.3-1.7-49-1.8-39.9 0-40.6 0-44.6 2.2-2.3 1.2-4.4 2.9-4.8 3.8-1.1 2.9-0.6 236.6 0.5 241.4 2.8 12.1 23.6 30.6 46.8 41.7 9.8 4.7 32.5 11.3 46.1 13.5 9.9 1.6 37.5 1.7 47 0.1 8.8-1.5 25.5-7.6 34.3-12.6 17.5-9.9 31.2-24.6 39.9-42.6 7.7-16 11-22.3 12.6-24.3 1.8-2 6-2.2 8.6-0.2 1.8 1.3 1.8 1.8 0.3 9.7-0.9 4.6-1.9 11-2.2 14.3-1.1 10.3-3.5 26.5-6 40-1.3 7.1-2.9 17.2-3.5 22.3-1.8 15.8-6.2 23.5-15.9 28.1l-5.6 2.6-88.5-0.3c-48.7-0.1-94.8-0.6-102.5-1.2-32.3-2.2-61.7-2.3-106.2-0.5-24.1 1-44.7 1.6-45.6 1.2-1.3-0.5-1.7-1.9-1.7-6.6 0-6.7 0.5-7.1 7.6-7.1 9.4 0 25.6-10.1 34.2-21.3 3.2-4.1 4.4-6.9 5.6-12.8 0.8-4.1 2.5-11.3 3.6-16 3.7-15.4 4.1-42.9 3.8-304.4l-0.3-248-2.8-5.7c-4.9-9.9-13.3-16-34.2-24.6-21.3-8.7-25.6-10.7-29.7-13.8-3.9-2.8-4.8-4-4.8-6.4 0-1.7 0.3-3 0.8-3 0.4-0.1 2.7-0.6 5.2-1.2 3.1-0.8 54.7-1.3 171.5-1.8l167-0.7 13-3c21.5-5.1 21.5-5.1 19.6 10zm-2482.7-12.2l5.9-0.1-0.6 5.8c-1.4 13.4-14.7 86.8-17.8 98.2-4.2 15.6-4.7 16.2-9.9 13.5-3.7-1.9-5-4.3-5-9.5 0-8-3.8-20-8.5-26.5-13.2-18.5-32.5-27.7-66.5-31.7-12.7-1.4-103.3-1.9-108.2-0.5-1.5 0.4-3.3 1.7-4 3-1.7 2.8-3.2 229.9-1.6 236.1 1.6 6.6 4.3 8.3 13.9 9.1 4.6 0.4 34.7 0.5 66.9 0.3l58.5-0.4 10.9-2.8c10.2-2.6 30.5-10.4 40.6-15.6 2.8-1.4 7-2.5 11.1-2.8l6.7-0.5 0.7 4.3c0.8 4.8 0.5 8.3-3.5 40.5-1.6 12.6-3.8 31.8-5 42.5-2.1 18.8-6.2 41.6-8.1 45.2-1.6 3.1-4.5 2-8.9-3.2-3.9-4.7-7.2-11.5-14.2-29-4.6-11.7-9.5-19.8-14-23-4.3-3.1-8.5-4.2-33.3-8.4-8.2-1.4-17.2-3.1-20-3.8-3.6-0.9-17.2-1.2-48-1.3-38.5 0-43.3 0.2-46.1 1.7-6.4 3.5-5.9-6.2-5.9 124.2 0 132.1-0.6 120.7 7.1 132.7 6.1 9.6 18 19.1 34.9 27.9 27.8 14.5 62.1 20.7 93 16.9 10.4-1.3 30.5-7.6 38.5-12.1 9.6-5.4 21.8-15.7 28.5-24.1 6.6-8.1 16.4-26.1 20.4-37.2 2.5-6.7 4-8.1 10.2-9.1l4.2-0.7-0.6 12.4c-0.3 6.8-1.5 16.7-2.6 21.9-1.1 5.2-2.9 16.9-4.1 26-2.9 22.7-7.3 42-10.8 48.4-4.8 8.4-8.4 9.8-27.7 10.8-20.1 0.9-158.2 0-181-1.3-32.7-1.8-67-2.2-92.5-1-14 0.6-31.9 1.1-39.7 1.2-13 0.1-14.6-0.1-17.8-2.1-5.5-3.4-4.8-6 2.3-8.8 3.1-1.2 7.3-2.5 9.2-2.9 12.6-2.2 27.8-16.2 34.1-31.3 3.6-8.5 4.7-14.2 5.9-29.2 1.1-14.1 1.6-528.1 0.5-538.6-1.6-15.8-11.1-23.3-48.3-38.3-18.3-7.3-24.1-11.6-21.5-15.8 2.8-4.5 0.6-4.5 178.8-5.1l168-0.6 9.5-2.7c5.2-1.4 12.2-2.6 15.4-2.6zm135.1 7.6c22 0.3 57.6 0.5 79 0.4 89.8-0.3 101.1-0.3 124.5 0.8 46.5 2.2 70.8 7.8 102.5 23.8 16.6 8.4 27.6 16.3 40.5 29.3 21 21 34 44.6 41.5 75 6.4 25.8 6.8 40.8 1.9 64-1.4 6.3-3.2 15.1-4 19.5-0.9 4.4-3 11.8-4.9 16.5-1.8 4.7-3.6 9.6-4 11-2.8 9.3-19.4 37.9-32.7 56.2-3.5 4.8-8.8 12.2-11.8 16.5-7.7 11-23.9 31.1-34.2 42.4-4.9 5.3-8.8 10.5-8.8 11.5 0 2.9 10.8 18.1 55.2 78.3 35.9 48.5 49.3 65.8 75.1 96.5 25.8 30.6 57.2 61.4 81.5 79.6 4 3 9.2 7 11.5 8.9 2.3 1.9 6.2 4.3 8.7 5.4 2.5 1.1 5.9 3 7.5 4.2 3.5 2.6 18.8 8.9 28.4 11.6 3.6 1 13 2.6 21 3.4 20.7 2.2 20.5 2.2 25.1 4.5 5.8 2.9 6.1 4.7 1.6 8.6-4.5 3.9-19.7 10.5-29.1 12.7-35.3 8.1-47.1 9.5-67 7.7-21.5-1.8-40.3-7-59-16.1-18.4-9-30-17.7-51.6-38.6-23.5-22.9-44.3-48.7-67.5-84-5.5-8.2-10.3-15.6-10.9-16.5-0.5-0.8-4.6-6.8-9-13.4-4.4-6.5-12-17.3-17-23.8-4.9-6.5-9.9-13.1-10.9-14.5-8.6-11.5-38-40.8-47.2-47.1-1.2-0.8-6.1-4.3-10.9-7.8-8.6-6.3-21.5-13.9-27.1-16-24.4-9.3-32.4-10.7-58.9-10.5-24.6 0.2-31.7 1.3-34.9 5.6-2.1 2.8-2.1 3-2.1 94v91.2l2.3 7.5c6.7 21.1 21.6 41.1 37.8 50.6 2.5 1.5 10.5 5.1 17.7 8.1 13.5 5.6 15.7 7.1 15.7 10.9 0 1.8-0.7 2.2-5.2 2.8-8.5 1-22.5 0.7-51.3-1-40.2-2.4-87.4-2.2-116.2 0.4-12.8 1.2-28.9 2.5-35.8 2.8l-12.5 0.7v-2.7c0-4.9 2.8-8.3 13.2-15.9 11.8-8.6 23.7-20.4 29.7-29.3 2.2-3.4 4.1-6.4 4.1-6.8 0-0.4 1.7-4.2 3.8-8.4 3-6.1 4.2-10.1 5.6-19.2 1.6-10.7 1.7-28.2 1.4-264.5-0.3-251.6-0.3-253-2.4-259.5-5.1-16.3-22.1-34.6-42.1-45.6-9.4-5.1-20.3-12.5-21.4-14.6-2.3-4.3-0.9-5.5 8.1-6.8 3-0.5 23.5-0.6 45.5-0.3zm142.5 33c-25.2 2.4-31.5 3.8-35.9 7.7-5.2 4.6-5-1.9-5.6 151.8l-0.7 143.5 2.6 3c4.1 4.8 12.6 8 25.1 9.4 16.6 1.8 74.8 0.4 87.5-2.1 23.5-4.6 35.5-10.7 51.8-26.4 9.7-9.3 19.6-25.1 24.1-38.6 2.7-7.8 6.6-24 8-33.5 1.2-7.9 1.7-66.8 0.7-73-1.5-8.7-3.8-18.4-6.3-26.5-2.9-9.7-12.5-32.7-16-38.2-1.3-2.1-2.3-4-2.3-4.3 0-1.3-12.5-20.2-17.5-26.5-9.6-12.1-27.7-25.6-47-35.2-11.4-5.7-19.2-8.4-30.1-10.3-7.9-1.4-28.4-1.8-38.4-0.8zm2501-28.9c0 2.8-5.4 6.8-16.5 12.3-6.9 3.3-15.5 8.4-19.3 11.1-15.1 11.2-26.7 25.3-30.3 36.8-2 6.4-2 8.6-2 236.5 0.1 139.8 0.5 235.1 1.1 243 2.2 30.2 12.9 50.4 36.5 69.4 17.6 14.1 45.9 23.1 72.4 23.1 24.2-0.1 45.1-4.9 66.6-15.5 29.8-14.6 52.9-35.6 74.2-67 3.9-5.8 12.4-13.1 13.7-11.8 1.2 1.2 0.6 37.8-0.9 47.8-3 21.3-11.1 55.9-17.2 73.2-3.5 10.1-3.6 10.3-6.7 10.3-3.1 0-30.3-1.7-70.1-4.5-41.1-2.8-100.7-3.8-185-3.1-44.5 0.3-86.4 1.1-93 1.6-28.8 2.3-34.2 2.4-37 0.6-1.7-1.1-2.5-2.5-2.5-4.6 0-3.3 0.8-3.9 10-7 11.5-3.8 20-9 27.7-16.8 4.4-4.4 7.6-8.7 8.4-11 0.6-2 2.7-7 4.5-11 4-8.7 5.8-16.1 7.6-30.2 2-15.9 1.9-515.8-0.1-524.5-3.6-15.8-13.3-27.8-28.1-34.7-12-5.6-18.1-8.2-24.5-10.5-10.4-3.8-13.5-5.9-13.5-9.4v-2.9l61.3-0.1c33.6-0.1 76.3-0.5 94.7-0.8 61.6-1.2 68-1.2 68-0.3zm-1360.3 1.5c1.1 1.2-2.5 8.2-4.8 9.4-1.3 0.7-7.1 3.4-12.9 5.9-24.4 10.8-28.7 13.1-34.3 18.5-3.9 3.8-5.9 6.8-6.9 9.9-1.1 3.7-1.3 51.4-1.3 272 0 301.2-0.6 276.6 7.6 296 9.8 22.8 17.7 29.8 43.2 38 8.3 2.7 17.1 5.4 19.4 6 3.3 0.8 4.4 1.7 4.9 3.5 1 4-0.2 5.3-5.3 6.2-7.9 1.3-215 1-216.3-0.3-3.1-3.1 1.7-8.4 14.5-15.6 12.2-6.9 20.2-12.7 25.1-18 5.4-5.8 14.1-23.6 15.8-32.4 1.2-5.8 1.5-51.5 1.8-279.4 0.3-260.6 0.2-272.7-1.5-276.5-3.3-7.4-15-17.3-25.3-21.3-2.7-1.1-8.7-3.5-13.4-5.4-4.7-2-11.1-4.3-14.2-5.2-5.3-1.5-5.8-1.9-5.8-4.6 0-5.7 1.8-6.3 17.4-5.7 7.8 0.3 22.2 1.3 32.1 2.1 9.9 0.9 24.5 1.6 32.5 1.6 18.1 0 61.7-1.6 81-3.1 8-0.7 20.6-1.5 28-1.8 14.6-0.7 17.8-0.7 18.7 0.2z"/>
		<path fill-rule="evenodd" class="s0" d="m472.4 2094.4c30.3 5.2 67.9 19.5 96.8 36.7 25.6 15.3 42.1 28.4 66.3 52.5 16.1 16 26.6 29.1 39.2 48.9 19.4 30.3 32 59.4 41.2 95.5 3.7 14.4 4.3 25.4 3.8 74.6-0.3 36.3-0.8 48.6-2 54.4-5.7 28.5-13.5 50.5-28.4 79.8-15.6 30.8-29.9 50.1-57.2 77.3-31.9 31.7-57.2 49.1-97.9 67.3-5.6 2.5-10.6 4.6-11.1 4.6-0.5 0-3.3 1.1-6.2 2.4-7.9 3.4-25.8 8.3-37.9 10.2-8.2 1.3-20.4 1.8-55.6 2.1-45.2 0.5-63.4-0.2-78.9-3.1-22.9-4.3-47.7-13.3-71-25.9-17.2-9.3-17.9-9.7-39.5-24.4-29-19.7-56.6-49-80.4-85.3-2.7-4.1-5.7-8.7-6.7-10.1-9.5-14.2-27.4-59.4-32.8-82.9-1.2-5.2-2.6-11.1-3.1-13-0.5-1.9-1.9-10-3.1-18-1.9-13.2-2.1-17.1-1.5-45 0.6-32.4 1.4-40 6.5-62.6 4.5-20.1 8.5-32.7 15.6-49.9 10.1-24.2 15.4-34.2 28.8-54 29.9-44.4 74.4-83.5 121.2-106.5 26.8-13.2 63.8-24.6 87.5-27 14.4-1.5 96-0.4 106.4 1.4zm-125.3 154.2c-14.4 7.6-21.7 13-34.5 25.4-23.5 22.7-37.7 47.1-46 79-4.9 18.9-5.9 27.7-5.3 44.3 0.4 12.4 0.9 15.7 4 26.2 1.9 6.6 3.8 13.3 4.2 15 0.3 1.6 1.3 4.3 2 6 0.8 1.6 3 7.1 5 12.2 4.1 10.5 4 12.1-1.6 25.3-1.7 4.1-4.6 11.8-6.4 17-1.7 5.2-3.9 11.5-4.8 14-4.9 13.2-11.7 35.5-11.7 38 0 1.6-1.1 4.6-2.5 6.6-2.6 3.9-2.8 6-0.4 5.7 0.8-0.1 8.1-2.9 16.2-6.2 8.2-3.4 17.4-6.8 20.5-7.7 3.2-0.9 6.2-2 6.7-2.4 0.6-0.5 5.1-2 10-3.5 5-1.5 13.1-4.3 18-6.2 5-1.9 12.1-4.1 15.9-4.9 7.7-1.6 8.6-1.4 25.6 6 4.1 1.8 14.5 5 23 7.2l15.5 3.9h21.5c21-0.1 21.8-0.2 35-3.4 33.5-8.3 54.9-20 76.3-41.6 25.8-26.1 39.6-52 46.2-86.8 1.7-9.2 2.1-43.6 0.5-53.2-1.5-9.2-8.4-31.5-12.9-41.4-13.3-29.6-35.7-53.8-66.3-71.9-17.7-10.4-41.6-18.3-61.5-20.2-32.2-3.1-64.7 3.1-92.2 17.6zm128.5 17.5c10.8 4.7 30 17.1 38.7 25 16.6 14.9 32.3 41.1 38.5 64.5 4.2 15.5 5 43.6 1.8 61.5-4.7 26.4-18.6 51.1-39.9 71.5-15.6 15-29.6 23.1-53.7 31.2-11.7 3.9-15.3 4.6-26.9 5.5-31.4 2.5-56.3-3.4-83-19.7-5.6-3.4-6.7-3.8-9-2.9-1.4 0.6-5.7 2.4-9.6 4.1-16.3 6.8-44.9 16.1-46.1 14.9-0.2-0.2 0.9-3.7 2.5-7.8 3-7.4 7.5-19.3 12.5-32.5 1.5-4 3.6-8 4.6-8.9 3.4-3.1 2.6-8.7-2.4-17.4-13.3-23-18.5-43.5-17.2-69.1 1.3-27.7 8.3-49.1 23.3-71.7 7.6-11.5 28.9-31.9 41.8-40.1 13.3-8.3 31.6-14.9 49-17.6 24.7-3.8 52.9-0.3 75.1 9.5zm-118.8 49.4c-10 11.5-15.6 38.8-11.4 55.5 3.3 12.9 4.9 17.8 8.1 24.8 1.9 4.1 3.5 7.6 3.5 7.8 0 0.3 1.9 3.5 4.2 7.2 15.5 24.8 40.6 44.9 67.8 54.4 9.2 3.2 9.9 3.3 25.5 3.3 16.8-0.1 19.5-0.5 34.5-6.5 9.9-3.9 13.6-9 12.7-17.9-0.8-8.7-3.2-13.5-9-17.9-11.3-8.6-21.3-7.6-35.5 3.2l-8.2 6.3-5.3-0.9c-13.2-2.4-25.6-11.1-45.2-31.8-14.8-15.6-19.5-24.3-19.5-35.8 0-6.6 0.1-6.9 4.1-10.7 2.2-2.2 4.8-5.6 5.7-7.5 0.9-1.9 2.7-5.1 4-7 3.2-4.7 2.6-10.1-1.7-16.4-4.6-6.6-7.8-9.4-14.6-12.7-9-4.4-14.4-3.7-19.7 2.6z"/>
		<path fill-rule="evenodd" class="s1" d="m1504.5 2247.8l22.5 0.5c12.4 0.3 23.9 0.9 25.5 1.4l3 0.9 0.8 16c0.4 8.7 0.6 80.3 0.5 159-0.3 122.2-0.5 143.3-1.7 144.8-1.3 1.6-4.4 1.7-38.2 1.4-28.5-0.2-37.1-0.6-38.1-1.6-1-1-1.4-23.9-1.9-116-0.3-63.1-0.6-114.8-0.7-115-0.7-1-5.6 0.5-14.9 4.4-15.3 6.4-21 8.6-45.3 16.9-31.6 10.7-44 13.9-51.9 13.1-3.6-0.3-6.9-1-7.5-1.6-0.7-0.7-1.1-8.5-1.1-22.2v-21.1l20-6.7c53.7-18 99.7-43.7 124.5-69.5zm644.5 3.3c48.7 6.8 90.4 27 113.4 54.8 8.1 9.8 12.8 17 17 26.2 4.5 9.7 10.3 31.1 11.6 42.4 1.3 11.9 1.3 51.7-0.1 63-1 8.8-7.3 35-10.3 43-12.8 34.8-35.5 58.9-72.3 76.6-15.7 7.6-29.1 12-47.8 15.8-26.1 5.2-29.4 5.5-58.5 5.5-23.9 0-29.2-0.3-40.5-2.3-25.8-4.5-41.1-8.9-55-15.8-24.6-12.3-39.8-26.9-49.6-47.7-7.4-15.8-6.3-20.4 5.4-22.5 7.3-1.2 36.1-3 53.6-3.3l12.4-0.2 4.3 9.5c2.4 5.2 4.3 9.9 4.3 10.4 0.1 0.6 3 4.3 6.6 8.2 5.4 5.9 8.2 8 16.4 12.2 14.6 7.4 21.1 8.5 47.4 7.8 22.6-0.6 27.4-1.4 41.2-6.5 13.9-5.2 22.3-10.6 33.3-21.5 11.4-11.2 21.8-32.1 26.7-54.2 0.9-3.9 1.9-8 2.2-9.3 0.8-3.3-1.5-2.9-12.5 2.4-19.3 9.2-40.9 15.9-67.2 21-10.9 2.1-44.8 2.4-57 0.6-16.3-2.5-44.9-9.4-54.4-13.2-34-13.5-59.2-35-70.6-60.4-9.1-20.3-8.8-48.5 0.8-69.6 8.8-19.5 21.9-33.7 43.9-47.2 28-17.3 60.9-26.3 101.8-27.7 25.3-0.8 36.2-0.4 53.5 2zm-29 42.4c-22.7-0.3-24-0.3-33.5 2.1-25.1 6.4-49.7 25.7-57.4 45.2-4.4 11.1-4.5 26.9-0.2 38.1 4.3 11.4 14.2 22.6 24.5 27.8 2.8 1.4 5.8 3.1 6.6 3.8 2.5 2 11.9 5.2 27 8.9 12.6 3.2 15.8 3.6 26.8 3.6 13.8 0 30.4-2.8 44.7-7.6 10.2-3.4 12.5-4.6 20.6-10.5 17.3-12.7 24.1-25.9 24-46.2-0.1-13.4-0.6-16.5-4.2-24.6-7.9-17.5-28.2-32.9-51-38.7-4.7-1.1-12.3-1.7-27.9-1.9zm509.5-23.5c44.2 21.2 69.6 54.7 76 100.2 6.4 45.1-1 99.1-17.4 128.3-14.8 26.2-34.8 44.4-64.2 58.4-33.6 16-71.5 23.2-115.4 21.7-63.1-2-108.3-21.1-130.3-55.1-4.8-7.5-10.5-19.9-10.9-24-0.4-3.7-0.2-4.2 3.1-6.3 2-1.2 5.7-2.6 8.4-3.2 6.1-1.2 38.3-3 53.8-3h12.2l0.6 3.4c1 5.4 8.4 19.2 13.2 24.5 4.8 5.3 12 10.4 17.5 12.2 1.9 0.7 4.4 2 5.7 3 1.3 1 5.5 2.5 9.5 3.4 10.5 2.5 42.7 2.3 55.2-0.4 12.8-2.7 27.8-8.5 35.9-13.8 9.1-6.1 20.8-18.1 25.6-26.3 5.8-10 12.5-25.7 14.4-34 2.8-12.4 3.6-15.9 3.6-16.4 0-1.4-4.5-0.4-9.3 2-17.9 9.1-47.5 18.1-73.7 22.4-12.4 2.1-47.4 1.6-60-0.9-22.3-4.3-39.2-8.6-49.4-12.8q-29.2-11.9-47.7-30.3c-17.7-17.6-26.9-35.8-28.5-56.5-1.9-24.1 7.6-50 25-68.3 28.5-29.9 72.2-46.9 125.6-49 49.6-2 87.4 4.5 121.5 20.8zm-121.5 24.4c-29.4 5.5-55.1 24.9-64.1 48.4-3 8-3.7 21.9-1.4 29.8 4.5 15.7 13.7 27.1 28.4 35.3 1.6 0.9 4.7 2.6 6.8 3.8 3.2 1.8 19.9 6.8 34.3 10.4 6.7 1.6 30.1 1 40.1-1 25.9-5.3 36.1-10 49.8-22.7 10.9-10 15.7-20.7 16.8-36.9 0.7-10.6-0.6-19-4.2-27.1-8.7-19.6-34.7-37.1-60-40.4-9.7-1.3-38.7-1-46.5 0.4zm562.9-19.1c9.8 5.6 14.5 9.1 21.9 16.1 25.6 24.3 30.4 58.2 12.2 85.3-19.6 29.1-55.1 53.6-149 102.8-12.4 6.5-28.3 15.2-35.5 19.3-7.1 4.1-17.4 10-22.8 13.1-11.2 6.4-16.6 10.5-15.4 11.7 1.7 1.7 16.5 2 123.7 2.3 59.7 0.1 108.9 0.6 109.4 1.1 1.2 1.2 0.2 37.9-1.2 41.1-0.9 2.2-1.9 2.7-5.9 3.2-7.5 1-317.3 1.9-330.8 1l-12-0.8-0.3-4.8c-0.4-6.6 2.2-15.8 6.9-24.7 4.8-8.8 8.3-13.3 19.9-25.4 19.8-20.6 44.7-37.2 98-65.3 5.8-3.1 14.8-7.8 20-10.6 84.4-44.5 112.6-65.6 120-89.5 5-16.1 0.3-29.7-13.9-40.6-12.3-9.5-27.3-15.2-44.6-17.1-9.1-1-41.9-0.7-51 0.5-8.4 1.1-21.3 4.9-28 8.3-16.8 8.3-29.9 24.3-32 39-0.8 5.7-5.9 12.2-10.3 13.2-1.5 0.3-9.3-0.1-17.2-1-8-0.8-20.1-2-27-2.6-23.1-1.9-30.1-2.7-30.7-3.3-0.3-0.3 0.1-2.3 0.9-4.3 0.9-2.1 2.3-7 3.2-10.8 0.9-3.9 3.5-10.7 5.8-15.3 20.5-41.3 69.4-64.6 142.8-68.1 61.2-3 106.6 5.4 142.9 26.2zm339.1-24.2c45.2 6.1 77.3 19.8 100.1 42.8 8.6 8.6 10.3 11 14.8 20.2 5.7 11.9 7.5 20 6.9 31.7-0.3 6.6-1 9.2-5.1 18.1-5.5 12-10.8 19.7-20.4 29.7-22.9 23.7-55.4 44.1-143.3 90.2-6.3 3.3-17.6 9.5-25 13.7-7.4 4.3-15.5 8.9-18 10.4-14.7 8.3-21.5 13-21.5 14.8 0 1.6 1.3 1.8 14 2.3 7.7 0.3 59.9 0.7 115.9 0.8 56.1 0.2 102.2 0.5 102.5 0.8 0.9 0.9 0.6 31.1-0.3 37.7-0.6 5-1.1 6-3.4 7-4 1.7-339.6 1.7-343.4 0-2.4-1.1-2.8-1.8-2.8-5.6 0-15.7 7.1-28.9 26.1-48.9 17.7-18.5 47.9-39 90.4-61.3 27.6-14.4 60.4-32.1 69.2-37.2 5.1-2.9 9.4-5.3 9.6-5.3 1.2 0 23.4-14.1 33.7-21.4 19.3-13.6 31.6-27.8 36.4-41.9 6-17.7-4.5-35.6-27.4-46.8-17.8-8.7-28.5-10.3-62.8-9.6-25.5 0.5-30.1 1.3-44.5 7.3-18.5 7.8-34.1 25.5-36.2 41-0.5 3.8-1.5 5.9-4 8.7-3.3 3.6-3.6 3.7-10.7 3.7-4 0-17-0.9-28.8-2-11.8-1.1-25.7-2.4-30.8-2.9-5.1-0.4-9.5-1.1-9.8-1.4-0.4-0.3 0.1-3.7 1.1-7.4 5.5-21.1 12.3-33.9 25-46.8 9.6-9.7 19.3-16.9 31.4-23 24-12 55-19.3 92.1-21.5 19.6-1.2 52.1-0.2 69 2.1zm497.7 41.2c18 18.8 24.7 40.2 17.9 57.9-3 7.8-8.3 16.4-13.9 22.5-4.4 4.8-17.6 14.3-24.2 17.4-4.5 2.2-9.2 5.6-8.5 6.1 0.3 0.2 5.5 2.8 11.5 5.7 25.7 12.4 31.6 15.9 39.5 23.3 10.2 9.6 16 19.4 21 35.8 3.9 12.7 3.8 17.9-1 32-5.6 16.6-11.2 25.3-23.9 37.2-35.3 33.3-102 52.6-168.3 48.7-33.6-1.9-70.9-10.4-89.8-20.3-18.1-9.6-26.7-15.4-36.3-24.5-9.5-9.1-16.5-18.4-21.2-28.2-3.7-7.9-7.4-23.4-5.9-24.9 0.5-0.5 7-1.2 14.4-1.5 7.4-0.4 23.6-1.8 36-3.2 31.4-3.6 27.9-4.1 31 4.2 9.7 25.9 22 39 45.1 48 14.3 5.6 20.8 6.7 41.9 6.7 20.2 0 31.8-1.5 43-5.6 3.6-1.3 8.7-3.2 11.4-4.2 12.7-4.6 29.4-18.8 35.3-30.1 4.8-9 6.1-21.7 3.1-31.3-3.6-11.5-15.9-23.6-32.3-31.7-6.7-3.3-21.6-8.1-28.5-9.2-8.6-1.4-35-1.4-53 0-16.2 1.3-21.9 0.5-24.4-3.4-1.3-1.9-1.3-3.3 0-10.7 3.5-20.1 6-26.1 11.4-27.2 1.9-0.4 12.7-1.2 24-1.8 18-0.9 22.2-1.5 34.4-4.6 20.8-5.2 27.7-8.4 36.2-17 4.3-4.2 8.2-9.3 9.9-12.8 2.5-5 2.7-6.4 2.1-11.8-0.8-8.5-3.9-14.1-11.6-21.8-7.3-7.3-18.7-13.9-28.5-16.4-10.6-2.7-28.7-3.8-44.5-2.7-16.5 1.2-23.4 2.7-33.9 7.6-14.7 7-24.8 17.1-32.7 32.8-1.5 2.9-4.1 7.3-5.8 9.9-3 4.8-3.1 4.8-8.6 4.8-3 0-11.1-0.9-18-2-20-3.2-38.9-5.8-46.7-6.5-4-0.4-7.3-0.8-7.3-0.9 0-1 9.7-22.1 12.4-26.9 4.5-8 14.7-20 22.1-26.1 26.4-21.5 62.2-33.7 107-36.6 66.7-4.3 128.9 12.8 158.2 43.3zm633.3-26.8c28.3 12.1 45.5 26.6 55.6 47 7.9 16.1 8.4 28.3 1.6 42.7-6.4 13.5-18.4 25.1-35.9 34.6-3.7 2.1-6.9 4.4-7 5.2-0.3 2 9.8 8.4 17.2 11 14.7 5.1 33.5 18.7 41.7 30.2 5.6 7.8 10.6 19.1 11.9 26.6 1.6 9.9 1.1 23.3-1.1 29.6-5.8 17-11.9 26.7-23.7 37.6-10 9.2-20.8 16.4-37.5 24.8-23.9 12.2-49.7 19.3-82.8 22.9-18.5 1.9-61.8 1.3-75-1.2-4.7-0.9-10.7-2-13.5-2.5-11.2-1.9-36-8.7-40.5-11.1-0.8-0.4-5.3-2.6-10-4.8-23.7-11.2-39.5-24.2-51.6-42.3-7.9-11.8-14.8-32.7-11.5-34.7 0.7-0.5 7-1.1 13.9-1.5 13.7-0.7 43.3-3.9 54.8-5.8 3.9-0.6 7.8-0.9 8.6-0.5 0.9 0.3 3.2 4.8 5.2 9.9 6.6 16.9 17.4 30.9 29.8 38.4 7.4 4.5 21.4 10 30.3 12 9.9 2.2 40.8 2.2 53.3 0 18.4-3.3 41.5-13.9 52-24 8.7-8.2 15.1-22.5 15.2-33.5 0-10.4-5.7-22.8-14.1-30.7-8.1-7.5-27.2-17.2-41.4-21-5.9-1.6-10.8-1.9-31-1.9-13.2 0-29.2 0.2-35.5 0.5-10.3 0.4-11.9 0.3-15.5-1.6-4.7-2.5-5.5-5.4-3-11.7 0.9-2.2 2.1-6.6 2.6-9.6 1.6-8.9 4.2-16.2 6.1-17.2 0.9-0.5 11.7-1.6 24-2.5 41.4-2.8 65.4-10.6 77.1-25 7.4-9.2 9.7-20.5 6.1-31.1-4-11.6-22.5-25.5-38.9-29.2-15.4-3.4-49.5-3.2-63.5 0.4-20 5.2-33.9 16.4-44.5 36-5.1 9.4-7.9 13.7-9.9 15.4-2.1 1.8-9.5 1.6-22.6-0.5-27.4-4.4-35.3-5.5-43.8-6.1-5.1-0.3-9.5-1-9.8-1.5-1.8-2.8 9.2-25.9 17.3-36.5 6.8-9 13.9-15.5 25.9-23.9 24.5-17.1 57.2-27 96.9-29.4 43-2.6 86.1 3.5 116.5 16.5zm418.3 0.6c34.4 15.4 59.6 43.2 72.5 79.9 7.8 22.3 11.2 60.5 8.2 91.1-6.1 61.3-29.4 98.5-76.5 122.1-14.8 7.5-24.8 10.8-44.2 14.7-31.5 6.4-69.6 6.8-98.8 1.1-17.1-3.4-28-6.1-31.3-7.9-1.1-0.6-2.8-1.1-3.6-1.1-1.6 0-10.9-4-21.1-9.2-8.3-4.2-22.7-15.3-31.1-24-15.5-16-28.2-39.6-32.9-61.3-1-4.4-2.2-8.8-2.6-9.7-0.5-1-1.7-5.7-2.6-10.5-1.4-7-1.7-13.9-1.6-33.3 0.2-28.9 1.3-41.8 4.8-56 7.7-30.9 17.2-48.9 35.4-67.1 30.2-30 65.5-44 116.1-45.8 49.3-1.7 77.2 2.6 109.3 17zm-89.3 27.3c-20.9-0.4-29.2 0.5-38.5 3.9-27.8 10.2-44.6 34.1-50.9 72.2-5.2 31.4-4.3 69.1 2.3 100.6 3.5 16.9 11.3 33 20.2 41.8 9.4 9.2 30.1 19.8 43.1 22 10.1 1.7 32.8 1.5 42.6-0.4 15.9-3.1 36-13.9 45.5-24.5 7.2-8 14.2-23.4 17.6-38.7 1.6-7 3.4-16.6 4-21.3 3.2-23.6 2.8-58-0.8-74.8-1.2-5.3-3-14.1-4.1-19.6-2.2-11.5-8.7-25.6-15.6-34-7.7-9.5-23.8-20-37.4-24.4-6.7-2.1-9.7-2.4-28-2.8zm852.5-45.6l21.5 0.5c20.4 0.4 27.6 1.4 30.8 3.9 0.9 0.8 1.2 32.5 1.2 152.2 0 91.1-0.4 154.1-1 158.5-0.6 4.1-1.6 7.8-2.2 8.3-0.7 0.5-17.8 0.7-38 0.6-28.5-0.2-37-0.6-38-1.6-1-1-1.4-23.6-1.8-115-0.3-62.5-0.9-114.3-1.3-115-1.2-1.8-2.8-1.5-11.9 2.4-28.7 12.3-66.7 25.4-87.2 29.9-8.3 1.9-17.8 1.7-19.9-0.4-0.8-0.8-1.3-7.5-1.5-22.4l-0.3-21.2 18.3-5.8c50.6-16.1 96.7-40.8 121.3-65zm-410.4 2.7c61.1 8 103.5 32 117.5 66.5 6.2 15.4 6.6 20.5 2.3 30.4-6.1 14.1-8.5 18.1-14.4 24.5-5.5 5.8-22.2 18.1-24.9 18.1-0.6 0-2.6 1.3-4.5 2.9l-3.5 2.8 4.5 2.8c2.4 1.6 7.3 4.1 10.9 5.7 34.2 15.2 49.4 30.5 56.1 56.6 5.7 22.5-2.6 47.6-22.6 67.8-14.1 14.2-40.8 29.4-65.5 37.4-15.9 5.2-42.6 10.5-60 12.1-19.5 1.7-57.9 0.7-73.5-2-40.3-7-63.4-15.6-85-31.6-8-5.9-23.5-21.6-28.4-28.8-6.2-9-14.7-32.6-12.5-34.6 0.5-0.5 9.9-1.4 20.9-2 17-0.9 33.9-2.7 53.2-5.7l4.2-0.7 6.4 13.1c3.5 7.2 8 15.3 10.1 18 5.5 7.6 15.5 16.3 22.7 19.9 20 10 26.8 11.5 52.4 11.6 20.4 0 33.9-1.7 41.8-5.3 2.3-1 7.4-3 11.2-4.4 7.6-2.8 20.2-10.1 24.8-14.5 4.2-3.8 9.1-10.7 13-18.2 6.4-12.4 5.8-24.6-1.9-36.1-6.4-9.6-12.4-14.8-27.9-24.3-2.5-1.5-11.8-5-21-7.8-6.3-2-9.2-2.2-31-2.2-13.2 0-29.2 0.2-35.5 0.5-9.6 0.4-12.3 0.2-16.2-1.3-4.1-1.6-4.8-2.3-4.8-4.7 0-1.5 0.7-4.7 1.5-7 0.8-2.4 2.4-8.6 3.4-13.7 1.1-5.2 2.7-10.5 3.5-11.8 1.9-2.9 3.8-3.2 29.1-4.5 16.3-0.9 22.3-1.7 32.5-4.1 21.3-5.2 31.8-10.3 40.3-19.9 6.4-7 8.1-11.4 8.2-21 0-7.6-0.3-9-2.9-13.5-8.6-14.6-24.7-24.7-43.9-27.6-11.1-1.7-41.3-1.3-51.5 0.6-16.2 3.1-30.4 10.8-40.4 22.1-2.5 2.8-7.4 10.1-10.8 16.2-9.7 17-8.8 16.3-19.5 15.1-4.9-0.5-13-1.6-18-2.5-16.7-2.9-35-5.4-40.7-5.4-3.1 0-5.9-0.3-6.1-0.8-1.7-2.8 7-23.4 14.4-34.4 10.8-15.8 32.7-32 55.9-41.3 12.5-5 31.7-10 45.5-11.9 6.6-0.8 13.1-1.7 14.5-1.9 7.5-1.2 55.6-0.6 66.1 0.8zm-4152 4c42.7 0.6 56.3 1.1 57.6 2 1.5 1.2 1.7 3.3 1.7 18.6 0 20.4-1.1 24.8-5.9 26-1.6 0.4-46 0.9-98.5 1.2l-95.5 0.6-1.7 2.1c-1 1.3-2.5 4.8-3.3 7.9-0.9 3.1-3.1 10.3-5.1 16.1-1.9 5.8-4.2 13.7-5.2 17.5-0.9 3.9-2.7 8.5-4 10.2-1.2 1.7-2.5 4.5-2.8 6.2-0.8 3.9-0.3 4 14.6 0.2 21.4-5.4 39.9-7.5 65-7.6 31.9 0 57.4 3.6 79.3 11.1 11.8 4.1 31.9 13.9 42.7 21 10.6 6.8 24.1 20.2 31.1 30.7 11.1 17 14.6 29.5 13.6 49.2-0.5 9.5-1 12.3-4.2 20.5-5.3 13.6-7.4 17.4-15.3 27.6-8.9 11.5-19 20.8-32.1 29.6-20.7 13.8-43.2 22.5-74.6 28.8-20.4 4-39.5 5.4-64.5 4.6-28.4-0.8-55.9-4.9-77-11.4-11.3-3.4-30.1-11.9-37.5-16.9-3.3-2.2-8.2-5.5-11-7.3-11.5-7.7-25.7-25-31.1-37.8-1.9-4.7-5.4-18.9-5.4-22.3v-2.7l18.3-0.6c10-0.3 29.1-0.8 42.3-1l24.1-0.5 0.6 4.4c1 6.8 8.1 20.7 13.9 27 13.5 14.8 33.3 23.4 59.2 25.6 36.8 3.1 69.6-6.7 90.6-27.1 12.6-12.2 18-25.2 18-43.1 0-17-5.3-28.7-18.6-40.7-8.8-8.1-25.6-16.5-38.2-19.3-14.4-3.1-38.5-4.5-54.3-3.1-20.7 1.9-29.7 3.7-38.4 7.6-13.8 6.3-19.4 9.6-27.3 16.2-5.6 4.7-7.3 5.3-13.7 4.8-46.3-3.2-54.5-4.3-61.3-7.5-5.3-2.6-5.4-1.6 2.3-25.4 3.1-9.4 7.8-24.4 10.6-33.5 7.4-24.1 21-68.8 22.4-74 0.7-2.5 3.1-10.5 5.4-17.8 2.3-7.4 4.1-13.9 4.1-14.6 0-0.6 0.4-1.6 1-2.2 1.2-1.2 136.7-1.8 208.1-0.9zm3055.7 177c2.1 0.4 3.6 1.4 4.2 2.8 1 2.5 0.6 41.4-0.5 42.5-1.8 1.8-199.2 2.4-203.9 0.6-2.4-0.9-2.8-5.7-2.5-24.8 0.4-15.2 0.6-17.8 2.2-19.3 1.6-1.7 6-1.8 64.5-2.3 69.7-0.6 131-0.3 136 0.5z"/>
	</g>
</svg>